<svg width="259" height="252" viewBox="0 0 259 252" fill="none" xmlns="http://www.w3.org/2000/svg">
<path d="M40.5 90.5H149L115.5 28.5C76 37.5 49 70 40.5 90.5Z" fill="#F09D39" stroke="black"/>
<path d="M53.6936 184.964L107.944 91L37.5 89.0118C25.5442 127.72 40.19 167.353 53.6936 184.964Z" fill="#C5D869" stroke="black"/>
<path d="M143.944 220.964L89.6936 127L52.75 187.012C80.2942 216.72 121.94 223.853 143.944 220.964Z" fill="#54D480" stroke="black"/>
<path d="M219.5 158L111 158L144.5 220C184 211 211 178.5 219.5 158Z" fill="#4A96EB" stroke="black"/>
<path d="M205.25 65L151 158.964L221.444 160.952C233.399 122.244 218.754 82.6112 205.25 65Z" fill="#6342B1" stroke="black"/>
<path d="M115 31L169.25 124.964L206.194 64.9519C178.649 35.2439 137.004 28.1112 115 31Z" fill="#D73964" stroke="black"/>
<line x1="111" y1="159.5" x2="219" y2="159.5" stroke="white" stroke-width="5"/>
<line x1="148.835" y1="160.75" x2="203.835" y2="65.4872" stroke="white" stroke-width="5"/>
<line x1="168.835" y1="123.25" x2="114.835" y2="29.7193" stroke="white" stroke-width="5"/>
<line x1="151" y1="90.5" x2="42" y2="90.5" stroke="white" stroke-width="5"/>
<line x1="110.165" y1="89.25" x2="56.6651" y2="181.915" stroke="white" stroke-width="5"/>
<line x1="89.1651" y1="123.75" x2="145.665" y2="221.611" stroke="white" stroke-width="5"/>
<path d="M230 125C230 180.228 185.228 225 130 225C74.7715 225 30 180.228 30 125C30 69.7715 74.7715 25 130 25C185.228 25 230 69.7715 230 125ZM40 125C40 174.706 80.2944 215 130 215C179.706 215 220 174.706 220 125C220 75.2944 179.706 35 130 35C80.2944 35 40 75.2944 40 125Z" fill="white"/>
</svg>
